FFmpeg version SVN-r25716, Copyright (c) 2000-2010 the FFmpeg developers  built on Nov 10 2010 12:23:18 with gcc 4.1.2 20080704 (Red Hat 4.1.2-48)  configuration: --enable-libmp3lame --enable-shared --disable-mmx --arch=x86_64  libavutil     50.33. 0 / 50.33. 0  libavcore      0.12. 1 /  0.12. 1  libavcodec    52.94. 4 / 52.94. 4  libavformat   52.84. 0 / 52.84. 0  libavdevice   52. 2. 2 / 52. 2. 2  libavfilter    1.59. 0 /  1.59. 0  libswscale     0.12. 0 /  0.12. 0Input #0, avi, from '/RAID10/data/converted_video_files/11940.avi':  Duration: 00:00:23.39, start: 0.000000, bitrate: 7653 kb/s    Stream #0.0: Video: mpeg4, yuv420p, 720x480 [PAR 1:1 DAR 3:2], 25 tbr, 29.97 tbn, 25 tbc    Stream #0.1: Audio: pcm_s16le, 48000 Hz, 2 channels, s16, 1536 kb/s[buffer @ 0x1d5493f0] w:720 h:480 pixfmt:yuv420pOutput #0, flv, to '/RAID10/data/converted_video_files/11940.flv':  Metadata:    encoder         : Lavf52.84.0    Stream #0.0: Video: flv, yuv420p, 720x480 [PAR 1:1 DAR 3:2], q=2-31, 600 kb/s, 1k tbn, 24 tbc    Stream #0.1: Audio: libmp3lame, 22050 Hz, 2 channels, s16, 96 kb/sStream mapping:  Stream #0.0 -> #0.0  Stream #0.1 -> #0.1Press [q] to stop encodingframe=   35 fps=  0 q=9.7 size=     225kB time=1.50 bitrate=1229.0kbits/s dup=0 drop=8    frame=   71 fps= 67 q=7.4 size=     362kB time=3.00 bitrate= 989.2kbits/s dup=0 drop=17    frame=  107 fps= 69 q=10.7 size=     513kB time=4.50 bitrate= 933.4kbits/s dup=0 drop=27    frame=  148 fps= 71 q=7.9 size=     669kB time=6.21 bitrate= 882.2kbits/s dup=0 drop=37    frame=  187 fps= 73 q=10.3 size=     822kB time=7.83 bitrate= 859.7kbits/s dup=0 drop=47    frame=  221 fps= 72 q=8.6 size=     941kB time=9.25 bitrate= 833.1kbits/s dup=0 drop=55    frame=  243 fps= 68 q=11.2 size=    1030kB time=10.17 bitrate= 830.1kbits/s dup=0 drop=60    frame=  281 fps= 68 q=8.4 size=    1166kB time=11.75 bitrate= 813.3kbits/s dup=0 drop=70    frame=  321 fps= 70 q=11.9 size=    1313kB time=13.42 bitrate= 801.7kbits/s dup=0 drop=80    frame=  354 fps= 69 q=7.5 size=    1425kB time=14.79 bitrate= 789.4kbits/s dup=0 drop=88    frame=  396 fps= 70 q=11.2 size=    1580kB time=16.54 bitrate= 782.3kbits/s dup=0 drop=98    frame=  434 fps= 71 q=10.5 size=    1719kB time=18.12 bitrate= 776.9kbits/s dup=0 drop=108    frame=  469 fps= 71 q=8.3 size=    1854kB time=19.58 bitrate= 775.5kbits/s dup=0 drop=116    frame=  506 fps= 71 q=10.5 size=    1975kB time=21.12 bitrate= 766.0kbits/s dup=0 drop=126    frame=  527 fps= 69 q=13.3 size=    2051kB time=22.00 bitrate= 763.9kbits/s dup=0 drop=131    frame=  562 fps= 69 q=8.0 Lsize=    2170kB time=23.46 bitrate= 757.7kbits/s dup=0 drop=139    video:1872kB audio:275kB global headers:0kB muxing overhead 1.077229%